HIERARCHY
ROOT Bip001_Pelvis
{
  OFFSET 32.8599 95.8771 -27.9544
  CHANNELS 6 Xposition Yposition Zposition Zrotation Xrotation Yrotation
  JOINT Bip001_Spine
  {
    OFFSET 1.4188e-005 10.2191 -0.0116013
    CHANNELS 3 Zrotation Xrotation Yrotation
    JOINT Bip001_L_Thigh
    {
      OFFSET 11.0458 -10.2191 0.0116197
      CHANNELS 3 Zrotation Xrotation Yrotation
      JOINT Bip001_L_Calf
      {
        OFFSET -0.707118 -44.0221 0.360014
        CHANNELS 3 Zrotation Xrotation Yrotation
        JOINT Bip001_L_Foot
        {
          OFFSET -0.651902 -40.5938 -3.56146
          CHANNELS 3 Zrotation Xrotation Yrotation
          JOINT Bip001_L_Toe0
          {
            OFFSET 0.0530839 -10.2181 13.1504
            CHANNELS 3 Zrotation Xrotation Yrotation
            End Site
            {
              OFFSET -1.02532e-005 0 7.55606
            }
          }
        }
      }
    }
    JOINT Bip001_R_Thigh
    {
      OFFSET -11.0458 -10.2191 0.0115893
      CHANNELS 3 Zrotation Xrotation Yrotation
      JOINT Bip001_R_Calf
      {
        OFFSET 0.706994 -44.0221 0.35984
        CHANNELS 3 Zrotation Xrotation Yrotation
        JOINT Bip001_R_Foot
        {
          OFFSET 0.651787 -40.5938 -3.5613
          CHANNELS 3 Zrotation Xrotation Yrotation
          JOINT Bip001_R_Toe0
          {
            OFFSET -0.0531479 -10.2181 13.1504
            CHANNELS 3 Zrotation Xrotation Yrotation
            End Site
            {
              OFFSET -1.02894e-005 0 7.55606
            }
          }
        }
      }
    }
    JOINT Bip001_Spine1
    {
      OFFSET 1.87041e-005 14.5736 1.08638
      CHANNELS 3 Zrotation Xrotation Yrotation
      JOINT Bip001_Spine2
      {
        OFFSET 2.24614e-005 14.5058 -1.69078
        CHANNELS 3 Zrotation Xrotation Yrotation
        JOINT Bip001_Neck
        {
          OFFSET 2.20278e-005 15.3945 -0.489414
          CHANNELS 3 Zrotation Xrotation Yrotation
          JOINT Bip001_L_Clavicle
          {
            OFFSET 6.06036 -0.000579998 0.00836775
            CHANNELS 3 Zrotation Xrotation Yrotation
            JOINT Bip001_L_UpperArm
            {
              OFFSET 11.5509 -0.0600302 0.00193952
              CHANNELS 3 Zrotation Xrotation Yrotation
              JOINT Bip001_L_Forearm
              {
                OFFSET 25.9523 0.0806089 -2.15551
                CHANNELS 3 Zrotation Xrotation Yrotation
                JOINT Bip001_L_Hand
                {
                  OFFSET 32.2475 0.153767 1.63968
                  CHANNELS 3 Zrotation Xrotation Yrotation
                  JOINT Bip001_L_Finger0
                  {
                    OFFSET 6.04639 -2.20976 5.90322
                    CHANNELS 3 Zrotation Xrotation Yrotation
                    End Site
                    {
                      OFFSET 4.22375 -1.43895 0.606486
                    }
                  }
                  JOINT Bip001_L_Finger1
                  {
                    OFFSET 11.0826 -0.704819 -0.198153
                    CHANNELS 3 Zrotation Xrotation Yrotation
                    End Site
                    {
                      OFFSET 6.20027 -0.397518 -0.0787166
                    }
                  }
                }
              }
            }
          }
          JOINT Bip001_R_Clavicle
          {
            OFFSET -6.06036 -0.000563197 0.00835105
            CHANNELS 3 Zrotation Xrotation Yrotation
            JOINT Bip001_R_UpperArm
            {
              OFFSET -11.5509 -0.0599978 0.00190698
              CHANNELS 3 Zrotation Xrotation Yrotation
              JOINT Bip001_R_Forearm
              {
                OFFSET -25.9523 0.0806819 -2.1559
                CHANNELS 3 Zrotation Xrotation Yrotation
                JOINT Bip001_R_Hand
                {
                  OFFSET -32.2476 0.153857 1.63991
                  CHANNELS 3 Zrotation Xrotation Yrotation
                  JOINT Bip001_R_Finger0
                  {
                    OFFSET -6.04642 -2.20975 5.9032
                    CHANNELS 3 Zrotation Xrotation Yrotation
                    End Site
                    {
                      OFFSET -4.22376 -1.43894 0.606473
                    }
                  }
                  JOINT Bip001_R_Finger1
                  {
                    OFFSET -11.0826 -0.70479 -0.198183
                    CHANNELS 3 Zrotation Xrotation Yrotation
                    End Site
                    {
                      OFFSET -6.20028 -0.397501 -0.0787337
                    }
                  }
                }
              }
            }
          }
          JOINT Bip001_Head
          {
            OFFSET 1.09673e-005 11.2744 2.05948
            CHANNELS 3 Zrotation Xrotation Yrotation
            End Site
            {
              OFFSET 2.89576e-005 20.8808 -2.77728e-005
            }
          }
        }
      }
    }
  }
}
MOTION
Frames:	16
Frame Time:	0.04
32.8335 95.9269 -28.399 0.24672 -0.546966 2.08918 -0.141585 2.11739 -0.325571 5.15615 -2.353 6.50534 -0.743409 6.24945 -10.4094 4.97299 -1.82362 -0.170332 -1.39147 -5.06818 2.66735 -2.95655 -2.59508 -1.7714 -0.0379341 10.1264 0.393478 -5.62679 -9.41832 1.93375 2.11371 -7.16909 2.15682 -0.271445 4.23559 -0.646367 -0.272402 4.2356 -0.646348 1.54479 -5.21206 -2.00216 -24.8054 6.12923 -0.10633 -58.7521 46.0329 4.14673 16.6588 -0.934908 -21.8652 8.25709 1.82685 -3.39186 3.18055e-015 9.54166e-015 -1.59028e-015 3.18055e-015 9.54167e-015 -3.18055e-015 26.0261 12.2629 15.7203 51.1529 35.1688 4.09528 -8.20449 7.90147 5.47756 -5.25867 11.4134 9.41185 -1.59028e-015 -4.77083e-015 -0 -1.59028e-015 -3.18056e-015 3.97569e-016 0.177828 -9.16929 -1.60125 
32.8423 95.9087 -28.4018 0.234633 -0.602712 1.96848 -0.142947 2.15957 -0.283072 5.14829 -2.40195 6.99315 -0.683653 6.42866 -10.8666 5.14803 -1.82163 -0.174364 -1.34403 -5.15081 2.63675 -2.96303 -2.64855 -1.8298 -0.049415 10.2212 0.393595 -5.60945 -9.48947 2.02448 2.11706 -7.21002 2.1715 -0.276807 4.3198 -0.561162 -0.276169 4.3198 -0.561198 1.74666 -5.43517 -2.14926 -24.981 6.35529 -0.21056 -58.6037 45.9866 3.87981 16.6614 -0.700586 -21.8971 8.21873 1.78668 -3.47671 -3.18055e-015 3.18055e-015 -0 -3.18055e-015 6.36111e-015 -0 25.689 12.5756 15.9798 51.5636 35.7664 3.89158 -8.32425 6.83479 5.34651 -4.76534 9.69221 9.23157 3.18055e-015 0 -7.95139e-016 1.59028e-015 0 -1.59028e-015 0.0853821 -9.32281 -1.68369 
32.905 95.9049 -28.3635 0.313316 -0.71957 1.78598 -0.162154 2.18544 -0.221796 4.96365 -2.13459 6.93494 -0.605443 6.14546 -10.7455 5.48154 -1.47776 -0.204841 -1.1904 -5.41623 2.49506 -3.08765 -2.6189 -2.02537 -0.0705797 10.3524 0.41906 -5.52332 -9.58926 2.28522 2.11829 -7.20437 2.18426 -0.315763 4.37234 -0.437842 -0.315747 4.37235 -0.437887 2.06994 -5.46603 -2.35577 -25.3701 6.36599 -0.310279 -58.5676 46.1093 3.87084 16.718 -0.651722 -21.8844 8.30172 1.82263 -3.47641 3.18055e-015 0 3.18055e-015 -0 0 1.59028e-015 25.2269 12.6588 16.1567 51.9265 35.7034 3.75501 -8.2597 6.54284 5.21997 -4.40055 9.19392 9.00371 -3.18055e-015 -3.18055e-015 -7.95139e-016 -4.41391e-032 -3.18056e-015 -7.95139e-016 -0.0940422 -9.51047 -1.77897 
32.9224 95.9109 -28.3528 0.330159 -0.784454 1.70506 -0.16552 2.18041 -0.219641 4.96163 -2.10512 7.30928 -0.548333 6.31462 -11.029 5.06448 -1.87455 -0.167938 -1.39784 -5.11935 2.67456 -3.12279 -2.54904 -2.04187 -0.0795575 10.3425 0.428331 -5.46491 -9.58712 2.40497 2.1153 -7.18486 2.1687 -0.321144 4.36142 -0.433422 -0.321136 4.36142 -0.433333 2.1538 -5.35538 -2.39161 -25.4962 6.23304 -0.279311 -58.7003 46.4619 4.01609 16.673 -0.993962 -21.7998 8.41421 1.84922 -3.43344 -6.36111e-015 1.27222e-014 -0 -3.18055e-015 1.27222e-014 -1.59028e-015 25.0136 12.5619 16.284 52.3172 35.4233 3.42219 -8.17453 6.74228 5.29078 -4.36515 9.59681 8.95806 -1.59028e-015 6.36111e-015 -7.95139e-016 -1.59028e-015 0 -0 -0.0755716 -9.65872 -1.80077 
32.9509 95.9148 -28.3456 0.341128 -0.800745 1.67731 -0.16795 2.15762 -0.234417 4.9229 -2.0196 7.05894 -0.562497 6.23612 -10.736 5.02808 -1.8765 -0.167982 -1.42749 -5.07035 2.72062 -3.16757 -2.49235 -2.01659 -0.0513455 10.3067 0.43401 -5.45335 -9.57577 2.41646 2.1148 -7.18084 2.16905 -0.320446 4.31587 -0.463182 -0.320448 4.31588 -0.463182 2.06012 -5.36207 -2.36692 -25.5256 6.21485 -0.149784 -58.7708 46.3571 4.19722 16.7266 -0.859958 -21.828 8.41062 1.91412 -3.43801 2.64834e-031 -3.18055e-015 4.77083e-015 -3.18055e-015 0 4.77083e-015 24.9613 12.544 16.3005 52.8354 35.3547 2.51641 -8.3537 6.63793 6.10448 -4.61036 10.0226 8.93835 -4.77083e-015 -3.18055e-015 -1.59028e-015 -6.36111e-015 -3.18056e-015 -7.95139e-016 0.00739649 -9.58478 -1.80525 
32.9846 95.9144 -28.3242 0.395596 -0.818353 1.62029 -0.175684 2.14446 -0.219849 4.83634 -1.9188 7.15443 -0.528867 6.14306 -10.805 5.03561 -1.83468 -0.170979 -1.42327 -5.07518 2.70917 -3.24952 -2.48428 -2.05252 -0.0338052 10.3694 0.41315 -5.44012 -9.61808 2.49235 2.11639 -7.19313 2.18179 -0.343601 4.29015 -0.433294 -0.343531 4.29015 -0.433424 1.97349 -5.43972 -2.37948 -25.5177 6.28665 -0.10922 -58.7312 46.2322 4.29235 16.6977 -0.706316 -21.8385 8.39315 1.85672 -3.44916 -3.18055e-015 0 1.59028e-015 -3.18055e-015 3.18056e-015 -0 25.0096 12.5814 16.1928 53.2827 35.3462 1.49823 -8.57674 6.22102 7.2133 -4.85117 10.2527 9.328 4.77083e-015 0 -0 6.36111e-015 -3.18056e-015 -0 0.0208904 -9.38611 -1.84347 
32.9999 95.9046 -28.3046 0.413243 -0.830926 1.62103 -0.183047 2.13373 -0.228839 4.79514 -1.8626 7.77366 -0.490927 6.09363 -11.478 5.51638 -1.50922 -0.205544 -1.24262 -5.39124 2.53982 -3.27317 -2.49033 -2.04444 -0.0236216 10.4628 0.421964 -5.43931 -9.68521 2.48937 2.11491 -7.16187 2.18349 -0.360723 4.26796 -0.451218 -0.360503 4.26797 -0.451232 1.85598 -5.35226 -2.35213 -25.4347 6.20224 -0.0884393 -58.7102 46.2627 4.36263 16.7598 -0.530317 -21.7458 8.39835 1.79015 -3.51128 0 1.27222e-014 -0 0 9.54167e-015 -0 25.1833 12.503 16.1961 53.6404 35.3666 0.45981 -8.73299 5.92249 8.31467 -5.08583 10.5354 9.80769 1.59028e-015 0 -0 3.18055e-015 0 -0 0.087607 -9.47717 -1.85326 
33.0191 95.9094 -28.2928 0.412906 -0.801092 1.69846 -0.184645 2.1255 -0.245923 4.79096 -1.90996 7.2529 -0.496527 6.14309 -10.9876 5.15491 -1.76936 -0.179058 -1.3874 -5.15501 2.68475 -3.29368 -2.46608 -2.09276 -0.0139797 10.4091 0.399165 -5.43812 -9.65628 2.50975 2.11488 -7.17884 2.18226 -0.361037 4.2506 -0.495685 -0.360519 4.2506 -0.495613 1.6844 -5.37577 -2.296 -25.2812 6.25198 -0.110271 -58.6861 46.2444 4.46084 16.8001 -0.472807 -21.7381 8.41913 1.84018 -3.51117 6.36111e-015 -6.36111e-015 -0 6.36111e-015 -6.36111e-015 -0 25.3041 12.487 16.1283 54.0699 35.0907 -0.31294 -8.74584 5.79728 9.10021 -5.23811 10.9264 10.1865 -4.41391e-032 -3.18055e-015 -7.95139e-016 1.59028e-015 -3.18056e-015 -7.95139e-016 0.175418 -9.4296 -1.85391 
33.0129 95.9181 -28.2621 0.416305 -0.792903 1.64676 -0.195213 2.12086 -0.235948 4.81985 -1.82884 6.70755 -0.577742 6.02421 -10.3128 4.9499 -1.85798 -0.16709 -1.40871 -5.01944 2.68691 -3.27246 -2.44582 -2.00627 -0.0141444 10.3782 0.390083 -5.44609 -9.63072 2.466 2.11427 -7.18453 2.17969 -0.380457 4.24164 -0.463548 -0.381076 4.24163 -0.4636 1.70048 -5.40028 -2.29484 -25.2978 6.27492 -0.10523 -58.6157 46.2241 4.48546 16.7695 -0.466804 -21.7097 8.39112 1.79024 -3.54203 -3.18055e-015 9.54166e-015 -1.59028e-015 -3.18055e-015 6.36111e-015 -1.59028e-015 25.342 12.4926 16.0314 54.4917 35.0249 -1.16223 -8.7766 5.40303 9.88242 -5.25679 11.2273 10.3851 1.59028e-015 0 7.95139e-016 1.59028e-015 -3.18056e-015 7.95139e-016 0.149139 -9.25299 -1.85334 
32.9556 95.9203 -28.2586 0.30159 -0.697082 1.74168 -0.181063 2.09625 -0.250807 5.00594 -1.97931 6.27317 -0.713301 6.13983 -9.9934 5.07233 -1.80906 -0.172852 -1.39804 -5.1126 2.69695 -3.09544 -2.41839 -1.85799 -0.037512 10.1926 0.354187 -5.49601 -9.5195 2.29355 2.11319 -7.17412 2.17781 -0.353356 4.19325 -0.496381 -0.353355 4.19325 -0.496381 1.69869 -5.36683 -2.29731 -25.3139 6.22323 -0.046497 -58.5234 46.1415 4.48413 16.7079 -0.44446 -21.7046 8.27149 1.76008 -3.56715 -6.36111e-015 3.18055e-015 1.59028e-015 -6.36111e-015 3.18056e-015 1.59028e-015 25.4671 12.4638 15.9797 54.9485 35.139 -2.23297 -8.92726 4.90894 10.8964 -5.06117 11.4053 10.5348 1.59028e-015 0 -0 4.77083e-015 -6.36111e-015 -7.95139e-016 0.168119 -9.13212 -1.85294 
33.006 95.9145 -28.2184 0.391545 -0.640926 1.76305 -0.199242 2.08035 -0.254802 4.85144 -1.97477 6.60322 -0.569367 6.1239 -10.3308 4.95746 -1.91878 -0.171333 -1.4517 -5.02388 2.72836 -3.24062 -2.47679 -1.99122 0.0131807 10.3277 0.376246 -5.49031 -9.62449 2.35775 2.11485 -7.17901 2.1926 -0.389766 4.14545 -0.503962 -0.389791 4.14544 -0.503167 1.60496 -5.31551 -2.29131 -25.2804 6.16841 -0.0144826 -58.5385 45.9248 4.58623 16.7626 -0.217862 -21.7626 8.25867 1.77552 -3.62694 6.36111e-015 3.18055e-015 -0 3.18055e-015 3.18056e-015 -1.59028e-015 25.6016 12.4172 15.9563 55.3879 34.8623 -3.27011 -8.88423 4.64317 11.8445 -5.06914 11.5787 10.9457 1.59028e-015 -3.18055e-015 -0 1.59028e-015 -3.18056e-015 -0 0.202143 -8.95571 -1.8744 
32.9954 95.912 -28.1548 0.413526 -0.68184 1.69527 -0.208991 2.08133 -0.238138 4.84866 -1.8226 6.45088 -0.613364 5.98432 -10.1507 5.11194 -1.77329 -0.168002 -1.37216 -5.12547 2.69267 -3.23124 -2.4241 -1.96492 -0.00621133 10.3555 0.383748 -5.49401 -9.66317 2.38904 2.11485 -7.20637 2.18644 -0.416721 4.15919 -0.468746 -0.416767 4.1592 -0.468904 1.60428 -5.41371 -2.31355 -25.2885 6.24955 0.0409657 -58.5689 45.6459 4.67803 16.6026 -0.48149 -21.9478 8.38869 2.0824 -3.42966 -0 0 1.59028e-015 -3.18055e-015 -3.18056e-015 1.59028e-015 25.6634 12.5204 15.9064 55.8704 34.5886 -4.55885 -8.94578 3.85287 13.1894 -5.13592 12.0503 11.2866 4.41391e-032 -3.18055e-015 7.95139e-016 4.41391e-032 -3.18056e-015 7.95139e-016 0.201033 -8.72055 -1.89741 
32.9918 95.8962 -28.1148 0.415765 -0.658757 1.71971 -0.211103 2.08371 -0.235497 4.85606 -1.91918 7.50005 -0.49244 6.20017 -11.2203 5.0803 -1.96281 -0.167998 -1.42186 -5.07732 2.7066 -3.23667 -2.45161 -1.96835 0.0107118 10.4198 0.366122 -5.52444 -9.74213 2.35706 2.11393 -7.18483 2.18663 -0.418013 4.17135 -0.465388 -0.418175 4.17135 -0.465883 1.46339 -5.7164 -2.32806 -25.2033 6.52819 0.175933 -58.4802 45.3468 4.72177 16.5921 -0.320653 -22.1315 8.41324 1.90771 -3.65163 3.18055e-015 -3.18055e-015 3.18055e-015 3.18055e-015 3.18056e-015 -0 25.7743 12.81 15.8375 56.4631 34.5424 -6.46541 -9.26348 2.19298 15.4171 -5.1073 12.6124 11.6607 -1.59028e-015 3.18055e-015 2.38542e-015 -3.18055e-015 -3.18056e-015 1.59028e-015 0.295388 -8.42846 -1.9604 
32.99 95.8981 -28.09 0.447232 -0.558838 1.78139 -0.221804 2.08043 -0.219465 4.85934 -1.96738 6.91497 -0.610916 6.10651 -10.6877 5.07959 -1.93889 -0.168563 -1.4202 -5.05899 2.71194 -3.26629 -2.51161 -1.94844 0.0433797 10.4062 0.349072 -5.56597 -9.7393 2.25426 2.13457 -7.25334 2.1954 -0.4367 4.16169 -0.431324 -0.436398 4.1617 -0.431028 1.23941 -6.14104 -2.41509 -24.9507 6.83083 0.623993 -58.3184 45.283 4.46366 16.6651 0.0819627 -22.1864 8.41501 1.67493 -4.02254 -3.18055e-015 -6.36111e-015 1.59028e-015 8.82782e-032 -3.18056e-015 1.59028e-015 26.0228 13.1592 15.4893 56.3606 32.954 -8.54468 -9.75396 0.905267 18.6589 -6.11241 16.6319 13.6299 -9.54166e-015 4.77083e-015 7.95139e-016 -3.18055e-015 6.36111e-015 -7.95139e-016 0.480318 -7.98956 -2.14264 
33.0057 95.8955 -28.0636 0.532114 -0.477288 1.81625 -0.259219 2.05577 -0.189261 4.81591 -1.94356 6.72178 -0.66587 5.96446 -10.5482 5.01635 -1.91116 -0.168127 -1.40343 -5.06882 2.69941 -3.32829 -2.55752 -1.85702 0.073833 10.4435 0.268673 -5.58312 -9.78132 2.16515 2.15167 -7.29601 2.20611 -0.509583 4.11235 -0.369202 -0.510796 4.11236 -0.369486 1.27081 -6.24516 -2.58204 -24.8154 6.80795 0.979486 -58.2983 44.7596 4.41247 16.7755 0.47212 -22.3883 8.42148 1.7373 -4.10758 -6.36111e-015 -3.18055e-015 -0 -3.18055e-015 -3.18056e-015 -0 26.3443 13.2634 15.1788 56.5287 29.4726 -11.4519 -12.7115 0.0149058 23.4513 -6.93973 21.1551 16.0607 -6.36111e-015 1.59028e-015 7.95139e-016 -9.54166e-015 4.77083e-015 -0 0.466849 -7.77358 -2.28915 
33.0367 95.902 -28.0322 0.549772 -0.41025 1.91905 -0.258548 2.04648 -0.200343 4.84756 -1.9567 6.47134 -0.823117 5.89729 -10.363 5.11683 -1.85123 -0.169327 -1.39909 -5.0691 2.68578 -3.34802 -2.48113 -1.71609 0.110282 10.265 0.134961 -5.59243 -9.72469 2.03748 2.16689 -7.34939 2.22583 -0.522212 4.07759 -0.391443 -0.520852 4.07759 -0.391454 1.2758 -6.37052 -2.6606 -24.7112 6.80528 1.37489 -58.2386 43.9212 4.50374 16.8426 0.882091 -22.8782 8.84765 1.6101 -4.25018 -1.76556e-031 -3.18055e-015 -3.18055e-015 3.18055e-015 0 -3.18055e-015 26.5736 13.3238 14.7857 56.5954 24.1574 -14.0279 -16.5173 -3.18957 29.3594 -7.79264 22.4083 17.924 -3.18055e-015 4.77083e-015 -7.95139e-016 -3.18055e-015 1.59028e-015 -2.38542e-015 0.39124 -7.59233 -2.35459 
